<?xml version="1.0" encoding="utf-8"?>
<!-- Generator: Adobe Illustrator 22.0.0, SVG Export Plug-In . SVG Version: 6.00 Build 0)  -->
<svg version="1.1" id="Capa_1" xmlns="http://www.w3.org/2000/svg" xmlns:xlink="http://www.w3.org/1999/xlink" x="0px" y="0px"
	 viewBox="0 0 59 59" style="enable-background:new 0 0 59 59;" xml:space="preserve">
<style type="text/css">
	.st0{fill:#5ED7C6;}
	.st1{fill:#572EE5;}
	.st2{fill:#FFFFFF;}
	.st3{fill:#AAC1CE;}
	.st4{fill:#572EE5;stroke:#5ED7C6;stroke-width:0.3;stroke-miterlimit:10;}
	.st5{font-family:'Bauhaus93';}
	.st6{font-size:26.8334px;}
	.st7{opacity:0.32;fill:#878787;}
	.st8{font-family:'Consolas';}
	.st9{font-size:2.4343px;}
</style>
<circle class="st0" cx="12.9" cy="22.7" r="10.4"/>
<circle class="st1" cx="30.2" cy="18.1" r="10.4"/>
<g>
	<g>
		<path class="st2" d="M46.7,23.3c-5.6-0.1-10.2-4.7-10.1-10.3S41.2,2.8,46.9,2.8C52.5,2.9,57.1,7.5,57,13.2l0,0
			C56.9,18.8,52.3,23.3,46.7,23.3z"/>
	</g>
	<path class="st3" d="M46.6,3.8c5.3,0,9.6,4.3,9.6,9.6S51.9,23,46.6,23S37,18.7,37,13.4l0,0C37,8.1,41.3,3.8,46.6,3.8 M46.6,3
		c-5.7,0-10.4,4.7-10.4,10.4s4.7,10.4,10.4,10.4S57,19.1,57,13.4S52.3,3,46.6,3C46.6,3,46.6,3,46.6,3z"/>
</g>
<text transform="matrix(1 0 0 1 0.7305 48.5576)" class="st4 st5 st6">gifos</text>
<text transform="matrix(1.0959 0 0 1 53.0664 39.1406)" class="st7 st8 st9">ZC</text>
</svg>
